# xmcd
#
# Track frame offsets: 
#        150
#        18241
#        42022
#        63014
#        88301
#        111090
#        132720
#        154258
#        175393
#        194302
#
# Disc length: 2802 seconds
#
# Revision: 6
# Processed by: cddbd v1.5.2PL0 Copyright (c) Steve Scherf et al.
# Submitted via: ExactAudioCopy v1.0b3
#
DISCID=840af00a
DTITLE=David Benoit, Russ Freeman - The Benoit-Freeman Project 2
DYEAR=2004
DGENRE=Jazz
TTITLE0=Palmetto Park
TTITLE1=Via Nueve
TTITLE2=Montecito
TTITLE3=Club Havana
TTITLE4=Two Survivors
TTITLE5=Samba
TTITLE6=Moon Through The Window
TTITLE7=Struttin'
TTITLE8=Stiletto Heels
TTITLE9=Waiting For The Stars To Fall
EXTD=YEAR: 2004
EXTT0=
EXTT1=
EXTT2=
EXTT3=
EXTT4=
EXTT5=
EXTT6=
EXTT7=
EXTT8=
EXTT9=
PLAYORDER=
